<svg xmlns="http://www.w3.org/2000/svg" width="40" height="40.001" viewBox="0 0 40 40.001"><defs><style>.a{fill:#fff;}</style></defs><g transform="translate(0 0)"><path class="a" d="M12.864,39.722A20.181,20.181,0,0,1,1.51,28.37a20.747,20.747,0,0,1,10.8-26.782A19.815,19.815,0,0,1,38.5,12.732a20.98,20.98,0,0,1-.245,16.187,4,4,0,0,1-7.371-3.107l.034-.081a12.98,12.98,0,0,0,.155-10.025A11.817,11.817,0,0,0,15.456,8.942a12.75,12.75,0,0,0-6.52,16.453,12.188,12.188,0,0,0,6.711,6.826l.141.057a4,4,0,1,1-2.925,7.446ZM11.368,20A8.632,8.632,0,1,1,20,28.634,8.633,8.633,0,0,1,11.368,20Z" transform="translate(0 0)"/></g></svg>